<mxfile host="app.diagrams.net" modified="2020-10-20T09:37:37.276Z" agent="5.0 (Windows NT 10.0; Win64; x64) AppleWebKit/537.36 (KHTML, like Gecko) Chrome/85.0.4183.102 YaBrowser/20.9.1.112 Yowser/2.5 Safari/537.36" etag="4gAHKUzIr6jwmWD8z99f" version="13.6.6" type="github">
  <diagram id="eRiAFbj-lgZ08c4oHYdX" name="Page-1">
    <mxGraphModel dx="734" dy="709" grid="1" gridSize="10" guides="1" tooltips="1" connect="1" arrows="1" fold="1" page="1" pageScale="1" pageWidth="827" pageHeight="1169" math="0" shadow="0">
      <root>
        <mxCell id="0" />
        <mxCell id="1" parent="0" />
        <mxCell id="tyWslPmNVzKp-HCH4Ety-1" value="" style="rounded=0;whiteSpace=wrap;html=1;" vertex="1" parent="1">
          <mxGeometry x="40" y="240" width="40" height="80" as="geometry" />
        </mxCell>
        <mxCell id="tyWslPmNVzKp-HCH4Ety-2" value="" style="rounded=0;whiteSpace=wrap;html=1;" vertex="1" parent="1">
          <mxGeometry x="160" y="130" width="40" height="80" as="geometry" />
        </mxCell>
        <mxCell id="tyWslPmNVzKp-HCH4Ety-3" value="" style="rounded=0;whiteSpace=wrap;html=1;" vertex="1" parent="1">
          <mxGeometry x="160" y="360" width="40" height="80" as="geometry" />
        </mxCell>
        <mxCell id="tyWslPmNVzKp-HCH4Ety-4" value="" style="rounded=0;whiteSpace=wrap;html=1;" vertex="1" parent="1">
          <mxGeometry x="280" y="240" width="40" height="80" as="geometry" />
        </mxCell>
        <mxCell id="tyWslPmNVzKp-HCH4Ety-5" value="" style="rounded=0;whiteSpace=wrap;html=1;" vertex="1" parent="1">
          <mxGeometry x="400" y="140" width="40" height="80" as="geometry" />
        </mxCell>
        <mxCell id="tyWslPmNVzKp-HCH4Ety-6" value="" style="rounded=0;whiteSpace=wrap;html=1;" vertex="1" parent="1">
          <mxGeometry x="700" y="280" width="40" height="80" as="geometry" />
        </mxCell>
        <mxCell id="tyWslPmNVzKp-HCH4Ety-7" value="" style="rounded=0;whiteSpace=wrap;html=1;" vertex="1" parent="1">
          <mxGeometry x="550" y="140" width="40" height="80" as="geometry" />
        </mxCell>
        <mxCell id="tyWslPmNVzKp-HCH4Ety-9" value="" style="rounded=0;whiteSpace=wrap;html=1;" vertex="1" parent="1">
          <mxGeometry x="394" y="420" width="40" height="80" as="geometry" />
        </mxCell>
        <mxCell id="tyWslPmNVzKp-HCH4Ety-13" value="" style="endArrow=none;html=1;entryX=0.025;entryY=0.363;entryDx=0;entryDy=0;entryPerimeter=0;" edge="1" parent="1" target="tyWslPmNVzKp-HCH4Ety-1">
          <mxGeometry width="50" height="50" relative="1" as="geometry">
            <mxPoint y="269" as="sourcePoint" />
            <mxPoint x="400" y="340" as="targetPoint" />
          </mxGeometry>
        </mxCell>
        <mxCell id="tyWslPmNVzKp-HCH4Ety-14" value="" style="endArrow=none;html=1;entryX=0;entryY=0.75;entryDx=0;entryDy=0;" edge="1" parent="1" target="tyWslPmNVzKp-HCH4Ety-1">
          <mxGeometry width="50" height="50" relative="1" as="geometry">
            <mxPoint y="300" as="sourcePoint" />
            <mxPoint x="290" y="340" as="targetPoint" />
          </mxGeometry>
        </mxCell>
        <mxCell id="tyWslPmNVzKp-HCH4Ety-15" value="" style="endArrow=none;html=1;exitX=1;exitY=0.5;exitDx=0;exitDy=0;entryX=0;entryY=0.5;entryDx=0;entryDy=0;" edge="1" parent="1" source="tyWslPmNVzKp-HCH4Ety-1" target="tyWslPmNVzKp-HCH4Ety-2">
          <mxGeometry width="50" height="50" relative="1" as="geometry">
            <mxPoint x="240" y="390" as="sourcePoint" />
            <mxPoint x="290" y="340" as="targetPoint" />
            <Array as="points">
              <mxPoint x="120" y="280" />
              <mxPoint x="120" y="170" />
            </Array>
          </mxGeometry>
        </mxCell>
        <mxCell id="tyWslPmNVzKp-HCH4Ety-16" value="" style="endArrow=none;html=1;entryX=0;entryY=0.5;entryDx=0;entryDy=0;" edge="1" parent="1" target="tyWslPmNVzKp-HCH4Ety-39">
          <mxGeometry width="50" height="50" relative="1" as="geometry">
            <mxPoint x="120" y="270" as="sourcePoint" />
            <mxPoint x="120" y="400" as="targetPoint" />
            <Array as="points">
              <mxPoint x="120" y="400" />
            </Array>
          </mxGeometry>
        </mxCell>
        <mxCell id="tyWslPmNVzKp-HCH4Ety-17" value="" style="endArrow=none;html=1;exitX=1;exitY=0.5;exitDx=0;exitDy=0;" edge="1" parent="1" source="tyWslPmNVzKp-HCH4Ety-55">
          <mxGeometry width="50" height="50" relative="1" as="geometry">
            <mxPoint x="199" y="157" as="sourcePoint" />
            <mxPoint x="278" y="280" as="targetPoint" />
            <Array as="points">
              <mxPoint x="240" y="160" />
              <mxPoint x="240" y="280" />
            </Array>
          </mxGeometry>
        </mxCell>
        <mxCell id="tyWslPmNVzKp-HCH4Ety-18" value="" style="endArrow=none;html=1;exitX=1;exitY=0.5;exitDx=0;exitDy=0;entryX=0;entryY=0.5;entryDx=0;entryDy=0;rounded=1;" edge="1" parent="1" source="tyWslPmNVzKp-HCH4Ety-3" target="tyWslPmNVzKp-HCH4Ety-35">
          <mxGeometry width="50" height="50" relative="1" as="geometry">
            <mxPoint x="220" y="390" as="sourcePoint" />
            <mxPoint x="270" y="340" as="targetPoint" />
            <Array as="points">
              <mxPoint x="240" y="400" />
              <mxPoint x="240" y="300" />
            </Array>
          </mxGeometry>
        </mxCell>
        <mxCell id="tyWslPmNVzKp-HCH4Ety-19" value="" style="endArrow=none;html=1;exitX=0.5;exitY=1;exitDx=0;exitDy=0;entryX=0;entryY=0.75;entryDx=0;entryDy=0;" edge="1" parent="1" source="tyWslPmNVzKp-HCH4Ety-1" target="tyWslPmNVzKp-HCH4Ety-9">
          <mxGeometry width="50" height="50" relative="1" as="geometry">
            <mxPoint x="220" y="390" as="sourcePoint" />
            <mxPoint x="270" y="340" as="targetPoint" />
            <Array as="points">
              <mxPoint x="60" y="480" />
            </Array>
          </mxGeometry>
        </mxCell>
        <mxCell id="tyWslPmNVzKp-HCH4Ety-20" value="" style="endArrow=none;html=1;entryX=1;entryY=0.5;entryDx=0;entryDy=0;exitX=0;exitY=0.5;exitDx=0;exitDy=0;" edge="1" parent="1" source="tyWslPmNVzKp-HCH4Ety-9" target="tyWslPmNVzKp-HCH4Ety-4">
          <mxGeometry width="50" height="50" relative="1" as="geometry">
            <mxPoint x="220" y="390" as="sourcePoint" />
            <mxPoint x="270" y="340" as="targetPoint" />
            <Array as="points">
              <mxPoint x="360" y="460" />
              <mxPoint x="360" y="280" />
            </Array>
          </mxGeometry>
        </mxCell>
        <mxCell id="tyWslPmNVzKp-HCH4Ety-21" value="" style="endArrow=none;html=1;exitX=0;exitY=0.75;exitDx=0;exitDy=0;" edge="1" parent="1" source="tyWslPmNVzKp-HCH4Ety-3">
          <mxGeometry width="50" height="50" relative="1" as="geometry">
            <mxPoint x="190" y="390" as="sourcePoint" />
            <mxPoint x="120" y="420" as="targetPoint" />
          </mxGeometry>
        </mxCell>
        <mxCell id="tyWslPmNVzKp-HCH4Ety-22" value="" style="endArrow=none;html=1;exitX=0;exitY=0.25;exitDx=0;exitDy=0;" edge="1" parent="1" source="tyWslPmNVzKp-HCH4Ety-2">
          <mxGeometry width="50" height="50" relative="1" as="geometry">
            <mxPoint x="190" y="390" as="sourcePoint" />
            <mxPoint x="120" y="150" as="targetPoint" />
          </mxGeometry>
        </mxCell>
        <mxCell id="tyWslPmNVzKp-HCH4Ety-23" value="" style="endArrow=none;html=1;" edge="1" parent="1" source="tyWslPmNVzKp-HCH4Ety-7">
          <mxGeometry width="50" height="50" relative="1" as="geometry">
            <mxPoint x="190" y="390" as="sourcePoint" />
            <mxPoint x="360" y="280" as="targetPoint" />
            <Array as="points">
              <mxPoint x="480" y="180" />
              <mxPoint x="480" y="280" />
              <mxPoint x="360" y="280" />
            </Array>
          </mxGeometry>
        </mxCell>
        <mxCell id="tyWslPmNVzKp-HCH4Ety-24" value="" style="endArrow=none;html=1;entryX=0.5;entryY=1;entryDx=0;entryDy=0;" edge="1" parent="1" target="tyWslPmNVzKp-HCH4Ety-36">
          <mxGeometry width="50" height="50" relative="1" as="geometry">
            <mxPoint x="240" y="160" as="sourcePoint" />
            <mxPoint x="430" y="340" as="targetPoint" />
          </mxGeometry>
        </mxCell>
        <mxCell id="tyWslPmNVzKp-HCH4Ety-25" value="" style="endArrow=none;html=1;exitX=1;exitY=0.25;exitDx=0;exitDy=0;entryX=0;entryY=0.25;entryDx=0;entryDy=0;" edge="1" parent="1" source="tyWslPmNVzKp-HCH4Ety-5" target="tyWslPmNVzKp-HCH4Ety-7">
          <mxGeometry width="50" height="50" relative="1" as="geometry">
            <mxPoint x="540" y="390" as="sourcePoint" />
            <mxPoint x="590" y="340" as="targetPoint" />
          </mxGeometry>
        </mxCell>
        <mxCell id="tyWslPmNVzKp-HCH4Ety-26" value="" style="endArrow=none;html=1;exitX=1;exitY=0.75;exitDx=0;exitDy=0;entryX=0;entryY=0.5;entryDx=0;entryDy=0;" edge="1" parent="1" source="tyWslPmNVzKp-HCH4Ety-9" target="tyWslPmNVzKp-HCH4Ety-41">
          <mxGeometry width="50" height="50" relative="1" as="geometry">
            <mxPoint x="540" y="390" as="sourcePoint" />
            <mxPoint x="680" y="340" as="targetPoint" />
            <Array as="points">
              <mxPoint x="550" y="480" />
              <mxPoint x="550" y="340" />
            </Array>
          </mxGeometry>
        </mxCell>
        <mxCell id="tyWslPmNVzKp-HCH4Ety-27" value="" style="endArrow=none;html=1;entryX=-0.075;entryY=0.338;entryDx=0;entryDy=0;entryPerimeter=0;exitX=1.05;exitY=0.413;exitDx=0;exitDy=0;exitPerimeter=0;" edge="1" parent="1" source="tyWslPmNVzKp-HCH4Ety-7" target="tyWslPmNVzKp-HCH4Ety-6">
          <mxGeometry width="50" height="50" relative="1" as="geometry">
            <mxPoint x="540" y="390" as="sourcePoint" />
            <mxPoint x="690" y="290" as="targetPoint" />
            <Array as="points">
              <mxPoint x="640" y="173" />
              <mxPoint x="640" y="307" />
            </Array>
          </mxGeometry>
        </mxCell>
        <mxCell id="tyWslPmNVzKp-HCH4Ety-28" value="" style="endArrow=none;html=1;exitX=1;exitY=0.5;exitDx=0;exitDy=0;" edge="1" parent="1" source="tyWslPmNVzKp-HCH4Ety-6">
          <mxGeometry width="50" height="50" relative="1" as="geometry">
            <mxPoint x="500" y="390" as="sourcePoint" />
            <mxPoint x="800" y="320" as="targetPoint" />
          </mxGeometry>
        </mxCell>
        <mxCell id="tyWslPmNVzKp-HCH4Ety-30" value="1" style="text;html=1;strokeColor=none;fillColor=none;align=center;verticalAlign=middle;whiteSpace=wrap;rounded=0;" vertex="1" parent="1">
          <mxGeometry y="250" width="40" height="20" as="geometry" />
        </mxCell>
        <mxCell id="tyWslPmNVzKp-HCH4Ety-33" value="0" style="text;html=1;strokeColor=none;fillColor=none;align=center;verticalAlign=middle;whiteSpace=wrap;rounded=0;" vertex="1" parent="1">
          <mxGeometry x="120" y="420" width="40" height="20" as="geometry" />
        </mxCell>
        <mxCell id="tyWslPmNVzKp-HCH4Ety-34" value="1" style="text;html=1;strokeColor=none;fillColor=none;align=center;verticalAlign=middle;whiteSpace=wrap;rounded=0;" vertex="1" parent="1">
          <mxGeometry y="300" width="40" height="20" as="geometry" />
        </mxCell>
        <mxCell id="tyWslPmNVzKp-HCH4Ety-35" value="" style="ellipse;whiteSpace=wrap;html=1;aspect=fixed;" vertex="1" parent="1">
          <mxGeometry x="270" y="290" width="20" height="20" as="geometry" />
        </mxCell>
        <mxCell id="tyWslPmNVzKp-HCH4Ety-36" value="" style="ellipse;whiteSpace=wrap;html=1;aspect=fixed;direction=south;" vertex="1" parent="1">
          <mxGeometry x="394" y="150" width="20" height="20" as="geometry" />
        </mxCell>
        <mxCell id="tyWslPmNVzKp-HCH4Ety-39" value="" style="ellipse;whiteSpace=wrap;html=1;aspect=fixed;" vertex="1" parent="1">
          <mxGeometry x="150" y="390" width="20" height="20" as="geometry" />
        </mxCell>
        <mxCell id="tyWslPmNVzKp-HCH4Ety-41" value="" style="ellipse;whiteSpace=wrap;html=1;aspect=fixed;" vertex="1" parent="1">
          <mxGeometry x="690" y="330" width="20" height="20" as="geometry" />
        </mxCell>
        <mxCell id="tyWslPmNVzKp-HCH4Ety-43" value="1" style="text;html=1;strokeColor=none;fillColor=none;align=center;verticalAlign=middle;whiteSpace=wrap;rounded=0;" vertex="1" parent="1">
          <mxGeometry x="50" y="240" width="40" height="20" as="geometry" />
        </mxCell>
        <mxCell id="tyWslPmNVzKp-HCH4Ety-44" value="1" style="text;html=1;strokeColor=none;fillColor=none;align=center;verticalAlign=middle;whiteSpace=wrap;rounded=0;" vertex="1" parent="1">
          <mxGeometry x="290" y="240" width="40" height="20" as="geometry" />
        </mxCell>
        <mxCell id="tyWslPmNVzKp-HCH4Ety-45" value="1" style="text;html=1;strokeColor=none;fillColor=none;align=center;verticalAlign=middle;whiteSpace=wrap;rounded=0;" vertex="1" parent="1">
          <mxGeometry x="560" y="140" width="40" height="20" as="geometry" />
        </mxCell>
        <mxCell id="tyWslPmNVzKp-HCH4Ety-46" value="1" style="text;html=1;strokeColor=none;fillColor=none;align=center;verticalAlign=middle;whiteSpace=wrap;rounded=0;" vertex="1" parent="1">
          <mxGeometry x="400" y="420" width="40" height="20" as="geometry" />
        </mxCell>
        <mxCell id="tyWslPmNVzKp-HCH4Ety-47" value="1" style="text;html=1;strokeColor=none;fillColor=none;align=center;verticalAlign=middle;whiteSpace=wrap;rounded=0;" vertex="1" parent="1">
          <mxGeometry x="120" y="130" width="40" height="20" as="geometry" />
        </mxCell>
        <mxCell id="tyWslPmNVzKp-HCH4Ety-51" value="&amp;amp;" style="text;html=1;strokeColor=none;fillColor=none;align=center;verticalAlign=middle;whiteSpace=wrap;rounded=0;" vertex="1" parent="1">
          <mxGeometry x="414" y="140" width="40" height="20" as="geometry" />
        </mxCell>
        <mxCell id="tyWslPmNVzKp-HCH4Ety-52" value="&amp;amp;" style="text;html=1;strokeColor=none;fillColor=none;align=center;verticalAlign=middle;whiteSpace=wrap;rounded=0;" vertex="1" parent="1">
          <mxGeometry x="170" y="130" width="40" height="20" as="geometry" />
        </mxCell>
        <mxCell id="tyWslPmNVzKp-HCH4Ety-53" value="&amp;amp;" style="text;html=1;strokeColor=none;fillColor=none;align=center;verticalAlign=middle;whiteSpace=wrap;rounded=0;" vertex="1" parent="1">
          <mxGeometry x="170" y="360" width="40" height="20" as="geometry" />
        </mxCell>
        <mxCell id="tyWslPmNVzKp-HCH4Ety-54" value="&amp;amp;" style="text;html=1;strokeColor=none;fillColor=none;align=center;verticalAlign=middle;whiteSpace=wrap;rounded=0;" vertex="1" parent="1">
          <mxGeometry x="710" y="280" width="40" height="20" as="geometry" />
        </mxCell>
        <mxCell id="tyWslPmNVzKp-HCH4Ety-55" value="" style="ellipse;whiteSpace=wrap;html=1;aspect=fixed;" vertex="1" parent="1">
          <mxGeometry x="190" y="150" width="20" height="20" as="geometry" />
        </mxCell>
      </root>
    </mxGraphModel>
  </diagram>
</mxfile>
